<?xml version="1.0" standalone="no"?>
<!DOCTYPE svg PUBLIC "-//W3C//DTD SVG 20010904//EN"
 "http://www.w3.org/TR/2001/REC-SVG-20010904/DTD/svg10.dtd">
<svg version="1.0" xmlns="http://www.w3.org/2000/svg"
 width="211.000000pt" height="211.000000pt" viewBox="0 0 211.000000 211.000000"
 preserveAspectRatio="xMidYMid meet">
<metadata>
Created by potrace 1.14, written by Peter Selinger 2001-2017
</metadata>
<g transform="translate(0.000000,211.000000) scale(0.100000,-0.100000)"
fill="#000000" stroke="none">
<path d="M869 1679 c-557 -167 -575 -173 -590 -200 -8 -15 -14 -208 -10 -315
1 -21 4 -22 186 -22 154 0 189 -2 210 -16 70 -46 60 -158 -17 -185 -19 -7
-129 -11 -282 -11 l-252 0 -33 -27 c-24 -21 -34 -39 -38 -70 -5 -39 -2 -46 30
-78 23 -23 45 -35 64 -36 15 0 199 0 408 0 311 -1 386 -3 411 -15 51 -24 73
-89 48 -140 -26 -54 -42 -58 -252 -59 l-192 -2 -30 -28 c-37 -36 -45 -73 -26
-119 28 -68 13 -67 700 -64 606 3 615 3 643 24 49 36 60 81 54 234 l-1 35
-117 -1 c-125 0 -153 6 -153 34 0 38 19 42 192 42 231 0 218 -14 218 233 0
254 27 232 -280 233 -246 2 -260 4 -260 39 0 32 17 35 208 36 l192 1 1 31 c6
167 -7 214 -67 248 -28 15 -80 17 -583 17 -304 0 -555 3 -558 6 -4 3 16 6 43
7 27 0 56 2 64 3 8 2 46 7 85 11 38 4 83 9 100 11 92 10 135 15 190 19 33 3
69 8 80 10 11 2 54 7 95 11 41 3 80 7 85 8 14 1 21 79 14 145 -5 53 -27 83
-70 94 -8 2 -238 -62 -510 -144z m1089 -634 c4 -4 7 -74 7 -156 l0 -149 -50
-1 c-287 -3 -430 3 -462 18 -102 48 -111 206 -15 265 19 12 51 24 70 27 48 8
442 4 450 -4z"/>
<path d="M1480 940 c-11 -11 -20 -31 -20 -45 0 -14 9 -34 20 -45 39 -39 110
-11 110 45 0 30 -36 65 -67 65 -13 0 -32 -9 -43 -20z"/>
</g>
</svg>
